Coordinates
version=1
nRows=6
nColumns=34
inDegrees=yes

Units are S.I. units (second, meters, Newtons, ...)
If the header above contains a line with 'inDegrees', this indicates whether rotational values are in degrees (yes) or radians (no).

endheader
time	pelvis_tilt	pelvis_list	pelvis_rotation	pelvis_tx	pelvis_ty	pelvis_tz	hip_flexion_r	hip_adduction_r	hip_rotation_r	knee_angle_r	ankle_angle_r	subtalar_angle_r	mtp_angle_r	hip_flexion_l	hip_adduction_l	hip_rotation_l	knee_angle_l	ankle_angle_l	subtalar_angle_l	mtp_angle_l	lumbar_extension	lumbar_bending	lumbar_rotation	arm_flex_r	arm_add_r	arm_rot_r	elbow_flex_r	pro_sup_r	arm_flex_l	arm_add_l	arm_rot_l	elbow_flex_l	pro_sup_l
      4.22500000	      0.15490103	     -9.67280222	   -172.33642029	      0.17718655	      1.12460329	      0.13425644	     28.83489288	     -8.84294008	     -6.92739643	      9.33384184	    -13.44858908	      8.21606945	      0.00000000	    -15.23266812	      8.41793241	      0.15200596	     49.57940404	    -15.38776717	    -26.57942458	      0.00000000	    -13.92678381	    -11.92609898	    -20.25441669	    -34.95241282	    -12.69659830	     -3.70221326	    110.54136756	     98.66179562	     21.11836892	    -22.74257542	     23.80184670	    104.62827409	     74.68990547
      4.23333330	     -0.42520484	     -9.59247366	   -172.28501458	      0.17721668	      1.12174179	      0.13500206	     28.01635007	     -8.81994651	     -6.73549249	      9.37200046	    -13.60974530	      8.13873821	      0.00000000	    -14.39330859	      8.25000638	      0.76555654	     54.91597173	    -15.37490157	    -27.59789406	      0.00000000	    -14.16035600	    -11.50681198	    -19.72372011	    -34.36042359	    -12.86775452	     -3.89833122	    111.02529144	     98.72129896	     20.24066588	    -22.88214007	     24.98018632	    105.46446083	     74.54737658
      4.24166670	     -0.98983839	     -9.57830345	   -172.26864542	      0.17738366	      1.11811244	      0.13559836	     27.18431979	     -8.81820689	     -6.40611020	      9.87729961	    -13.74409320	      7.82027507	      0.00000000	    -13.43211635	      8.25149556	      1.48312508	     60.24720657	    -16.08246720	    -28.47347833	      0.00000000	    -14.55381234	    -11.11919161	    -19.02446079	    -33.83270937	    -12.90854066	     -4.17394761	    111.40604608	     98.81580421	     19.06142767	    -23.30193231	     26.42890199	    106.81479577	     74.37409416
      4.25000000	     -1.45126632	     -9.57771910	   -172.36099246	      0.17779220	      1.11389987	      0.13604170	     26.40594271	     -8.80100675	     -6.22114394	     10.68108535	    -13.72082406	      7.09466028	      0.00000000	    -12.18805663	      8.28447250	      1.90342067	     65.55137173	    -16.53749312	    -28.82302132	      0.00000000	    -14.93570866	    -10.67855487	    -18.11694384	    -33.02306254	    -12.94827854	     -4.40247931	    111.56307425	     98.90474031	     17.66981491	    -23.70048123	     27.55457280	    107.79055489	     74.28117364
      4.25833330	     -1.72668686	     -9.63592652	   -172.55844495	      0.17823041	      1.10833100	      0.13622860	     25.79138497	     -8.78437253	     -5.99098380	     11.79254650	    -13.92224581	      5.91297731	      0.00000000	    -10.54932258	      8.33965649	      2.05694471	     70.97889218	    -16.91011748	    -28.79241452	      0.00000000	    -15.25148555	    -10.33051905	    -17.11018207	    -32.10963573	    -13.00594237	     -4.57615924	    111.69995550	     99.03461702	     15.86444561	    -24.44905131	     28.49753943	    108.82002799	     74.23853170
      4.26666670	     -1.89265833	     -9.57441557	   -172.88383613	      0.17859461	      1.10199212	      0.13635065	     25.24374087	     -8.60114005	     -5.69910924	     13.19304126	    -13.83985258	      4.37805204	      0.00000000	     -8.68379907	      8.25824494	      2.00538010	     76.24852311	    -16.71325675	    -28.29898480	      0.00000000	    -15.44733973	     -9.84711476	    -15.94057276	    -31.04956324	    -13.23932196	     -4.67426024	    111.72225043	     99.17562007	     13.67894596	    -25.39776109	     29.06924400	    109.60032288	     74.30216194
